<svg width="33" height="33" viewBox="0 0 33 33" fill="none" xmlns="http://www.w3.org/2000/svg">
<path d="M6.06255 19.4954C5.81024 19.4963 5.56286 19.4255 5.34916 19.2914C5.13545 19.1572 4.9642 18.9652 4.85528 18.7376C4.74637 18.51 4.70427 18.2562 4.73388 18.0056C4.76349 17.7551 4.86359 17.518 5.02255 17.3221L18.2226 3.72208C18.3216 3.60779 18.4565 3.53056 18.6052 3.50306C18.7539 3.47556 18.9075 3.49943 19.0409 3.57075C19.1742 3.64208 19.2793 3.75661 19.339 3.89556C19.3987 4.03451 19.4093 4.18961 19.3692 4.33542L16.8092 12.3621C16.7337 12.5641 16.7084 12.7814 16.7353 12.9954C16.7623 13.2094 16.8408 13.4137 16.964 13.5907C17.0872 13.7676 17.2516 13.9121 17.4429 14.0116C17.6343 14.1112 17.8469 14.1628 18.0626 14.1621H27.3959C27.6482 14.1612 27.8956 14.232 28.1093 14.3661C28.323 14.5003 28.4942 14.6923 28.6032 14.9199C28.7121 15.1475 28.7542 15.4013 28.7246 15.6519C28.6949 15.9024 28.5948 16.1395 28.4359 16.3354L15.2359 29.9354C15.1369 30.0497 15.0019 30.1269 14.8532 30.1544C14.7045 30.1819 14.5509 30.1581 14.4176 30.0867C14.2842 30.0154 14.1791 29.9009 14.1194 29.7619C14.0598 29.623 14.0491 29.4679 14.0892 29.3221L16.6492 21.2954C16.7247 21.0934 16.7501 20.8761 16.7231 20.6621C16.6961 20.4481 16.6177 20.2438 16.4944 20.0668C16.3712 19.8899 16.2069 19.7454 16.0155 19.6459C15.8242 19.5463 15.6116 19.4947 15.3959 19.4954H6.06255Z" stroke="white" stroke-width="3.08" stroke-linecap="round" stroke-linejoin="round"/>
</svg>
